<svg xmlns="http://www.w3.org/2000/svg" width="500" height="500" viewBox="0 0 500 500">
  <defs>
    <style>
      .cls-1 {
        fill: #fff;
        fill-rule: evenodd;
      }
    </style>
  </defs>
  <path id="CP" class="cls-1" d="M250,10.391c132.333,0,239.609,107.276,239.609,239.609S382.333,489.609,250,489.609,10.391,382.333,10.391,250,117.667,10.391,250,10.391ZM171.169,340.967c46.616,0,82.354-31.238,89.007-77.257H210.862c-4.9,19.45-20.169,32.1-39.588,32.1-24.782,0-42.959-19.639-42.959-46.634,0-27.1,18.177-47.026,42.959-47.026,18.419,0,33.54,11.653,39.548,29.6h48.852c-7.113-44.376-42.639-74.651-88.5-74.651-53.27,0-93.053,39.436-93.053,92.078,0,52.352,39.783,91.788,93.053,91.788v0Zm186.573-179.44H283.228V336.542h48.324V288.205h26.19c37.2,0,64.841-26.745,64.841-63.446S394.943,161.527,357.742,161.527Zm-5.78,84.577h-20.41V203.63h20.41c12.691,0,21.056,8.8,21.056,21.237S364.653,246.1,351.962,246.1Z"/>
</svg>
